<svg id="Layer_1" data-name="Layer 1" xmlns="http://www.w3.org/2000/svg" viewBox="0 0 2048 538.89"><defs><style>.cls-1{fill:#0392c9;}.cls-2{fill:#eb9322;}.cls-3{fill:#fff;}</style></defs><path class="cls-1" d="M264.76,422.78c0-111.79,90.62-202.41,202.41-202.41a203.63,203.63,0,0,1,40.47,4C492.66,98,385.15,0,254.72,0,114,0,0,114,0,254.72S114,509.44,254.72,509.44a257.21,257.21,0,0,0,28.74-1.62A201.65,201.65,0,0,1,264.76,422.78Z"/><path class="cls-2" d="M442.24,376.73a164.15,164.15,0,0,1-6.84,39.82,150.51,150.51,0,0,1-14.27,32.56,127.31,127.31,0,0,1-19.57,25.29,128.61,128.61,0,0,1-22.64,18.12,99.61,99.61,0,0,1-23.58,10.85A77.44,77.44,0,0,1,333,507q-8.71-.18-15.89-1-3.08-.35-6.15-.94c-2.05-.4-4-.85-5.73-1.37a28.32,28.32,0,0,1-4.7-1.79,6.53,6.53,0,0,1-2.9-2.56l4.95-243a33.16,33.16,0,0,1,7.95-3.68,62.52,62.52,0,0,1,9.57-2.22q5-.76,10.17-1.11c3.42-.23,6.66-.34,9.74-.34a135,135,0,0,1,22.13,2,99.84,99.84,0,0,1,23.16,6.93A95.6,95.6,0,0,1,407.12,271a80.9,80.9,0,0,1,18.2,21.11,114.16,114.16,0,0,1,12.56,30.42q4.69,17.6,4.7,41.18v6.41A65.51,65.51,0,0,1,442.24,376.73Zm-34.35-3.93v-5.72q0-4.87-.6-12.22t-2.14-16.5a127.39,127.39,0,0,0-4.61-18.54,111.91,111.91,0,0,0-7.86-18.28,64.48,64.48,0,0,0-12.05-15.9,56.93,56.93,0,0,0-17.18-11.28,59.91,59.91,0,0,0-23.07-4.44L325,488.67a84.57,84.57,0,0,0,16.41-3.25,72.07,72.07,0,0,0,17.34-7.86A84.78,84.78,0,0,0,375.5,463.8a90.88,90.88,0,0,0,14.7-21.1,151.51,151.51,0,0,0,11.28-29.91A214.86,214.86,0,0,0,407.89,372.8Z"/><path class="cls-2" d="M604.59,400.14q0,24.62-5.72,44.1t-15.55,33.07a70,70,0,0,1-23.16,20.84,58.36,58.36,0,0,1-28.37,7.27,57.21,57.21,0,0,1-28.54-7.52A72.25,72.25,0,0,1,480,476.54q-9.92-13.85-15.64-33.24t-5.73-43.16A129,129,0,0,1,463.69,363a87.06,87.06,0,0,1,14.52-29,66.69,66.69,0,0,1,23.07-18.89,67.65,67.65,0,0,1,30.51-6.75q18.8,0,32.47,6.75A61.75,61.75,0,0,1,586.9,334a83,83,0,0,1,13.33,29A148.09,148.09,0,0,1,604.59,400.14Zm-26.49.35a133.05,133.05,0,0,0-2.73-28,68.09,68.09,0,0,0-8.46-21.79,40.8,40.8,0,0,0-14.44-14.1q-8.72-4.95-20.68-5a38.28,38.28,0,0,0-19.4,5,43.22,43.22,0,0,0-14.61,14.1,72.3,72.3,0,0,0-9.23,21.79,112.88,112.88,0,0,0-3.25,28A132.55,132.55,0,0,0,489,433a92.73,92.73,0,0,0,9.91,25A49.19,49.19,0,0,0,513.59,474a32.18,32.18,0,0,0,18.2,5.64,32.61,32.61,0,0,0,18-5.47,47.78,47.78,0,0,0,14.7-15.72,90.19,90.19,0,0,0,9.91-24.86A136,136,0,0,0,578.1,400.49Z"/><path class="cls-2" d="M768.83,400.14q0,24.62-5.73,44.1t-15.55,33.07a69.76,69.76,0,0,1-23.16,20.84A58.33,58.33,0,0,1,696,505.42a57.21,57.21,0,0,1-28.54-7.52,72.46,72.46,0,0,1-23.24-21.36q-9.91-13.85-15.64-33.24t-5.72-43.16a129.31,129.31,0,0,1,5-37.17,86.89,86.89,0,0,1,14.53-29,66.5,66.5,0,0,1,23.07-18.89,67.6,67.6,0,0,1,30.5-6.75q18.79,0,32.47,6.75A61.7,61.7,0,0,1,751.14,334a83.34,83.34,0,0,1,13.33,29A148.55,148.55,0,0,1,768.83,400.14Zm-26.49.35a133,133,0,0,0-2.74-28,67.63,67.63,0,0,0-8.46-21.79,40.8,40.8,0,0,0-14.44-14.1q-8.72-4.95-20.68-5a38.25,38.25,0,0,0-19.39,5A43.16,43.16,0,0,0,662,350.67a72.3,72.3,0,0,0-9.22,21.79,112.41,112.41,0,0,0-3.25,28A132.57,132.57,0,0,0,653.21,433a92.41,92.41,0,0,0,9.92,25A49.06,49.06,0,0,0,677.82,474a32.21,32.21,0,0,0,18.2,5.64,32.61,32.61,0,0,0,18-5.47,47.78,47.78,0,0,0,14.7-15.72,89.88,89.88,0,0,0,9.91-24.86A136,136,0,0,0,742.34,400.49Z"/><path class="cls-2" d="M937.33,255.22v243.7H913.92V472.26A62.55,62.55,0,0,1,906.48,483a64.1,64.1,0,0,1-8.28,8,55.61,55.61,0,0,1-8.63,5.73,72.1,72.1,0,0,1-8.46,3.84,63.1,63.1,0,0,1-19.49,4.1,63.87,63.87,0,0,1-29.56-7,69.9,69.9,0,0,1-23.67-20q-10-13-15.64-31.53t-5.64-41.44A149.35,149.35,0,0,1,791.47,368a102.42,102.42,0,0,1,12.65-30.25,66.28,66.28,0,0,1,20.16-20.6,48.84,48.84,0,0,1,26.92-7.6,82.66,82.66,0,0,1,24.27,4.61,72.78,72.78,0,0,1,10.16,4.45,61,61,0,0,1,10.17,6.75,65.06,65.06,0,0,1,9.32,9.31,56.72,56.72,0,0,1,7.6,12.31V256.25Zm-26,153.64A120.13,120.13,0,0,0,908,383.65a89.68,89.68,0,0,0-7.09-19.22,57,57,0,0,0-9.74-13.76,58,58,0,0,0-11.11-9,42,42,0,0,0-11.28-4.87,41.42,41.42,0,0,0-10.25-1.46q-12.13,0-20.85,5.47a42.66,42.66,0,0,0-14.36,15.38A77.27,77.27,0,0,0,815.05,380a163.69,163.69,0,0,0-2.64,30.59q0,19.83,5.21,33.58t13,22.22a47.71,47.71,0,0,0,16.92,12.22,45,45,0,0,0,17,3.76,37.56,37.56,0,0,0,16.92-4.19,42.83,42.83,0,0,0,15-13.16q6.66-9,10.76-22.81T911.36,408.86Z"/><path class="cls-2" d="M1002.27,260.86,998.86,501H978.52L975.1,258.81Z"/><path class="cls-2" d="M1061.58,401.51a13.5,13.5,0,0,0-.18,3.68,36.67,36.67,0,0,1,.18,3.67q0,17.08,3.41,28.8a69.05,69.05,0,0,0,8.63,19.39,42.14,42.14,0,0,0,11.45,11.8,56.41,56.41,0,0,0,11.71,6.06,38.57,38.57,0,0,0,9.4,2.31c2.62.23,4.21.34,4.78.34-.11,0,.69-.08,2.4-.25a46.91,46.91,0,0,0,6.75-1.37,61.75,61.75,0,0,0,9.48-3.51,45.64,45.64,0,0,0,10.51-6.75,55,55,0,0,0,17.35-27.08l21,6a82.77,82.77,0,0,1-6.84,18.8,77.63,77.63,0,0,1-9.48,14.35A66.2,66.2,0,0,1,1151,488.24a72.86,72.86,0,0,1-11.54,7.09,74.73,74.73,0,0,1-28.54,8q-15,0-26.57-4.53a63.2,63.2,0,0,1-19.91-12.22,72.35,72.35,0,0,1-14-17.6,103.48,103.48,0,0,1-9-20.77,135,135,0,0,1-4.78-21.7,154.07,154.07,0,0,1-1.45-20.42q0-8.89,1-19.49a130.4,130.4,0,0,1,3.93-21.36,101.52,101.52,0,0,1,8.21-20.85,65.75,65.75,0,0,1,13.84-17.94A64.37,64.37,0,0,1,1083,313.93q12.23-4.71,29-4.7,2.91,0,9.48.59a64.53,64.53,0,0,1,14.79,3.42,76,76,0,0,1,16.92,8.55,60.88,60.88,0,0,1,16,16q7.26,10.25,12,25.8t4.7,37.94ZM1111,335.37a59.7,59.7,0,0,0-21.7,5.64,49.9,49.9,0,0,0-8.46,5.22,43.07,43.07,0,0,0-7.77,7.69,49.07,49.07,0,0,0-6.33,10.68,50.94,50.94,0,0,0-3.76,14.18h93.83a46.89,46.89,0,0,0-5.47-18.11A50.64,50.64,0,0,0,1140.45,347a47,47,0,0,0-14.19-8.64A42.51,42.51,0,0,0,1111,335.37Z"/><path class="cls-2" d="M1324.76,339.65q0-15.9-2.74-26.75a69,69,0,0,0-6.83-17.86,39,39,0,0,0-8.89-10.85,40.64,40.64,0,0,0-8.89-5.64,31.18,31.18,0,0,0-9.74-2.31,36.14,36.14,0,0,0-21,6.5q-9.4,6.5-16.06,19.57T1240.25,335q-3.68,19.67-3.68,46.14a287.43,287.43,0,0,0,3.34,46.57q3.33,20.08,9.4,33.59t14.78,20.25a31,31,0,0,0,19.48,6.75c.23,0,1.31-.11,3.25-.34a23.36,23.36,0,0,0,6.92-2.23,37.4,37.4,0,0,0,8.72-6.06,43.83,43.83,0,0,0,8.88-11.88,84.33,84.33,0,0,0,7.18-19.57,153.37,153.37,0,0,0,3.85-29.14q-13.17,1-25.81,2.91t-25.29,4.78V399.12q23.58,1,46.82,1h16.32c5.41,0,10.86-.11,16.32-.34a205.68,205.68,0,0,1-2.82,36.15,145.44,145.44,0,0,1-7.34,27.17,84.2,84.2,0,0,1-10.43,19.48,75.42,75.42,0,0,1-12.05,13.08,55.77,55.77,0,0,1-12,7.86,66.76,66.76,0,0,1-10.68,4,46.51,46.51,0,0,1-7.77,1.54c-2,.17-3.11.26-3.34.26q-19.47,0-34.69-8.12t-25.63-24.1q-10.42-16-15.81-39.64t-5.38-54.78q0-33.66,5.29-58.27t16.07-40.76a67.13,67.13,0,0,1,27.26-24q16.48-7.86,38.88-7.87c.34,0,2.16.15,5.47.43a52.59,52.59,0,0,1,12,2.82,67.5,67.5,0,0,1,14.95,7.61,55.63,55.63,0,0,1,14.7,14.78q6.75,9.57,11.28,24.44t4.53,36.4Z"/><path class="cls-2" d="M1467.8,317.94q9.92,0,16.66,4.1A32.52,32.52,0,0,1,1495.4,333a48,48,0,0,1,6,15.81,94,94,0,0,1,1.8,18.54q0,9.41-1,22.65a162,162,0,0,1-4.44,26.91l-21-3.07q2-12.13,2.73-22.31t.69-17.68q0-18.29-3.85-25.72t-11.88-7.44q-7,0-15.21,6.5t-16.06,19.65Q1425.25,380,1418.75,400t-10.08,47V507.3l-25.81-1.37q-.16-49.73-.94-85t-1.45-57.68q-1-26.31-2.22-43.24l30.42-2.05v55.89a143.25,143.25,0,0,1,8.8-19.06,94,94,0,0,1,12.82-18,67.47,67.47,0,0,1,16.75-13.5A41.27,41.27,0,0,1,1467.8,317.94Z"/><path class="cls-2" d="M1663.82,400.14q0,24.62-5.72,44.1t-15.56,33.07a69.82,69.82,0,0,1-23.15,20.84,58.36,58.36,0,0,1-28.37,7.27,57.21,57.21,0,0,1-28.54-7.52,72.25,72.25,0,0,1-23.24-21.36q-9.91-13.85-15.64-33.24t-5.73-43.16a129,129,0,0,1,5.05-37.17,86.88,86.88,0,0,1,14.52-29,66.69,66.69,0,0,1,23.07-18.89,67.65,67.65,0,0,1,30.51-6.75q18.8,0,32.47,6.75A61.75,61.75,0,0,1,1646.13,334a83,83,0,0,1,13.33,29A148.09,148.09,0,0,1,1663.82,400.14Zm-26.49.35a133.05,133.05,0,0,0-2.73-28,68.09,68.09,0,0,0-8.46-21.79,40.8,40.8,0,0,0-14.44-14.1q-8.71-4.95-20.68-5a38.28,38.28,0,0,0-19.4,5,43.22,43.22,0,0,0-14.61,14.1,72.3,72.3,0,0,0-9.23,21.79,112.88,112.88,0,0,0-3.25,28,132.55,132.55,0,0,0,3.68,32.47,92.73,92.73,0,0,0,9.91,25,49.19,49.19,0,0,0,14.7,16.06,32.18,32.18,0,0,0,18.2,5.64,32.61,32.61,0,0,0,18-5.47,47.88,47.88,0,0,0,14.7-15.72,90.19,90.19,0,0,0,9.91-24.86A136,136,0,0,0,1637.33,400.49Z"/><path class="cls-2" d="M1828.05,400.14q0,24.62-5.72,44.1t-15.55,33.07a69.85,69.85,0,0,1-23.16,20.84,58.33,58.33,0,0,1-28.37,7.27,57.21,57.21,0,0,1-28.54-7.52,72.35,72.35,0,0,1-23.24-21.36q-9.92-13.85-15.64-33.24t-5.72-43.16a129.31,129.31,0,0,1,5-37.17,87.06,87.06,0,0,1,14.52-29,66.63,66.63,0,0,1,23.08-18.89,67.57,67.57,0,0,1,30.5-6.75q18.8,0,32.47,6.75A61.87,61.87,0,0,1,1810.37,334a83.34,83.34,0,0,1,13.33,29A148.57,148.57,0,0,1,1828.05,400.14Zm-26.49.35a133.05,133.05,0,0,0-2.73-28,67.63,67.63,0,0,0-8.46-21.79,40.8,40.8,0,0,0-14.44-14.1q-8.72-4.95-20.68-5a38.31,38.31,0,0,0-19.4,5,43.22,43.22,0,0,0-14.61,14.1,72.56,72.56,0,0,0-9.23,21.79,112.9,112.9,0,0,0-3.24,28,132.57,132.57,0,0,0,3.67,32.47,92.73,92.73,0,0,0,9.91,25,49.19,49.19,0,0,0,14.7,16.06,32.21,32.21,0,0,0,18.2,5.64,32.61,32.61,0,0,0,18-5.47,47.78,47.78,0,0,0,14.7-15.72,89.88,89.88,0,0,0,9.91-24.86A136,136,0,0,0,1801.56,400.49Z"/><path class="cls-2" d="M2000.32,497q2.06-13.83,3.42-26.83t2-24.44q.68-11.44.94-20.93t.26-16.32q0-25.29-3.76-38.37t-12-13.07q-6.32,0-14.27,10.17t-15.81,31.53c.23,3.3.4,6.81.52,10.51s.17,7.66.17,11.88q0,16.4-1.2,35.71t-4.44,41.19l-25.12,1.54q2.39-24.11,3.07-43.24t.69-33.15q0-19.83-1-33.16a186.86,186.86,0,0,0-2.65-21.45q-1.62-8.12-3.67-11.53t-4.1-3.42q-3.76,0-8.8,7.86a207.79,207.79,0,0,0-12.22,23.24,180.35,180.35,0,0,0-10.94,29.91,280.32,280.32,0,0,0-5.9,28.2q-2.13,13.85-3.33,27.34t-2.91,27.18l-23.41.68q.35-12.3.34-24.27V450.56q0-27.18-.51-49.73t-1-39.14q-.68-19.31-1.36-34.69l31.1,1.37v55q1.36-4.78,3.59-11c1.48-4.15,3.19-8.43,5.13-12.81a114.72,114.72,0,0,1,6.75-13,70.59,70.59,0,0,1,8.46-11.45,40.59,40.59,0,0,1,10.08-8.12,24,24,0,0,1,12-3.08q9.06,0,16.67,9.49t11,29q6.32-12,12.82-18.63a58.9,58.9,0,0,1,11.87-9.83,29.71,29.71,0,0,1,9-3.84,34.74,34.74,0,0,1,4.44-.69,29.89,29.89,0,0,1,13.5,3.25q6.49,3.25,11.54,12.39t8,25.38q3,16.23,3,42,0,16.92-1.37,38t-4.27,47.6Z"/><path class="cls-3" d="M193.37,397.76a48,48,0,0,1-17.54-3.2C162.08,389.23,151,377,143,358.32a74.21,74.21,0,0,1,38.82-97.52c19-8.19,35-9.57,48.82-4.2s24.82,17.52,32.87,36.24c6.69,15.53-.41,28.07-6.67,39.15a99.79,99.79,0,0,0-6.11,12,103.19,103.19,0,0,0-3.83,13c-3.12,12.53-6.66,26.72-22.21,33.42C213.18,395.3,202.82,397.76,193.37,397.76ZM213,268.42c-7.39,0-15.77,2-25.33,6.16a59.22,59.22,0,0,0-31,77.81c6.5,15.09,14.51,24.31,24.51,28.19s22.24,2.56,37.47-4c8.3-3.57,10.57-11.17,13.59-23.27a87.84,87.84,0,0,1,11.43-28.71c6.2-11,9.52-17.54,5.95-25.83h0c-6.49-15.09-14.51-24.31-24.51-28.19A33.32,33.32,0,0,0,213,268.42Z"/><path class="cls-3" d="M146.61,265.14a33,33,0,1,1,13-2.71A32.86,32.86,0,0,1,146.61,265.14Zm0-50.86a17.92,17.92,0,1,0,16.48,10.83h0A17.93,17.93,0,0,0,146.58,214.28Z"/><path class="cls-3" d="M93.76,329.52a37.28,37.28,0,1,1,14.69-3A37.34,37.34,0,0,1,93.76,329.52ZM93.68,270a22.28,22.28,0,1,0,20.5,13.47A22.17,22.17,0,0,0,93.68,270Z"/><path class="cls-3" d="M105.9,403.27a33,33,0,1,1,13-2.7A32.88,32.88,0,0,1,105.9,403.27Zm0-50.87a18,18,0,1,0,6.64,1.29A17.91,17.91,0,0,0,105.89,352.4Z"/><path class="cls-3" d="M238.42,232a30,30,0,0,1-16.88-4.85c-16.75-11-26.95-24-30.31-38.9-3.41-15.07.39-31.17,11.29-47.84a72.74,72.74,0,0,1,100.56-21c16.75,11,26.95,24.05,30.3,38.9,3.41,15.07-.39,31.17-11.29,47.84h0c-8.78,13.43-19.84,13.62-29.59,13.78A62.68,62.68,0,0,0,279.78,221a117.08,117.08,0,0,0-13.72,4.37C257.26,228.54,247.74,232,238.42,232Zm25-109.46a57.65,57.65,0,0,0-48.33,26.08c-17.14,26.2-12.2,48.4,14.67,66,7.84,5.13,19.19,1,31.21-3.32a128,128,0,0,1,15.6-4.92,75.32,75.32,0,0,1,15.69-1.45c8.83-.15,12.86-.22,17.29-7h0c17.13-26.2,12.2-48.4-14.67-66A57.33,57.33,0,0,0,263.41,122.52Z"/><path class="cls-3" d="M307.25,107.76a32.31,32.31,0,1,1,27.09-14.62h0A32.3,32.3,0,0,1,307.25,107.76Zm.08-49.63a17.41,17.41,0,0,0-3.58.37,17.32,17.32,0,1,0,18,26.43h0a17.32,17.32,0,0,0-5-24A17.14,17.14,0,0,0,307.33,58.13Z"/><path class="cls-3" d="M229.83,101.36a36.72,36.72,0,1,1,7.57-.79A36.73,36.73,0,0,1,229.83,101.36ZM230,43.19a21.79,21.79,0,0,0-4.46.46A21.58,21.58,0,1,0,248,76.58h0a21.58,21.58,0,0,0-18-33.39Z"/><path class="cls-3" d="M172.85,149.13a32.47,32.47,0,1,1,6.68-.7A32.06,32.06,0,0,1,172.85,149.13Zm.1-49.66a17.59,17.59,0,0,0-3.59.38,17.32,17.32,0,1,0,18,26.43h0A17.33,17.33,0,0,0,173,99.47Z"/></svg>